<svg xmlns="http://www.w3.org/2000/svg" viewBox="0 0 32 32" width="24" height="24" style="" filter="none">
    
    <g>
    <path d="M6.222 8.889c-0.982 0-1.778-0.796-1.778-1.778s0.796-1.778 1.778-1.778c0.982 0 1.778 0.796 1.778 1.778s-0.796 1.778-1.778 1.778zM11.111 5.778h15.111c0.736 0 1.333 0.597 1.333 1.333s-0.597 1.333-1.333 1.333h-15.111c-0.736 0-1.333-0.597-1.333-1.333s0.597-1.333 1.333-1.333zM11.111 14.667h15.111c0.736 0 1.333 0.597 1.333 1.333s-0.597 1.333-1.333 1.333h-15.111c-0.736 0-1.333-0.597-1.333-1.333s0.597-1.333 1.333-1.333zM11.111 23.556h15.111c0.736 0 1.333 0.597 1.333 1.333s-0.597 1.333-1.333 1.333h-15.111c-0.736 0-1.333-0.597-1.333-1.333s0.597-1.333 1.333-1.333zM6.222 17.778c-0.982 0-1.778-0.796-1.778-1.778s0.796-1.778 1.778-1.778c0.982 0 1.778 0.796 1.778 1.778s-0.796 1.778-1.778 1.778zM6.222 26.667c-0.982 0-1.778-0.796-1.778-1.778s0.796-1.778 1.778-1.778c0.982 0 1.778 0.796 1.778 1.778s-0.796 1.778-1.778 1.778z" fill="rgba(79.05,79.05,79.05,1)"></path>
    </g>
  </svg>