<svg xmlns="http://www.w3.org/2000/svg" viewBox="0 0 48 48" width="24" height="24" style="border-color: rgba(187,187,187,1);border-width: 0px;border-style: solid" filter="none">
    
    <g>
    <path d="M39 6H9C7.34315 6 6 7.34315 6 9V39C6 40.6569 7.34315 42 9 42H39C40.6569 42 42 40.6569 42 39V9C42 7.34315 40.6569 6 39 6Z" stroke="rgba(52.019999999999996,123.92999999999999,174.93,1)" stroke-width="4" stroke-linecap="round" stroke-linejoin="round" fill="none"></path><path d="M18 23C20.7614 23 23 20.7614 23 18C23 15.2386 20.7614 13 18 13C15.2386 13 13 15.2386 13 18C13 20.7614 15.2386 23 18 23Z" fill="none" stroke="rgba(52.019999999999996,123.92999999999999,174.93,1)" stroke-width="4" stroke-linecap="round" stroke-linejoin="round"></path><path d="M42 36L31 26L21 35L14 29L6 35" stroke="rgba(52.019999999999996,123.92999999999999,174.93,1)" stroke-width="4" stroke-linecap="round" stroke-linejoin="round" fill="none"></path>
    </g>
  </svg>