<?xml version="1.0" standalone="no"?><!DOCTYPE svg PUBLIC "-//W3C//DTD SVG 1.1//EN" "http://www.w3.org/Graphics/SVG/1.1/DTD/svg11.dtd"><svg t="1680872420692" class="icon" viewBox="0 0 1024 1024" version="1.1" xmlns="http://www.w3.org/2000/svg" p-id="2680" xmlns:xlink="http://www.w3.org/1999/xlink" width="200" height="200"><path d="M972.8 624.64c0-143.36-138.24-261.12-291.84-261.12-163.84 0-291.84 117.76-291.84 261.12s128 261.12 291.84 261.12c30.72 0 66.56-10.24 102.4-20.48l92.16 56.32-25.6-92.16c71.68-51.2 122.88-122.88 122.88-204.8z m-384 0c-25.6 0-51.2-20.48-51.2-51.2 0-25.6 20.48-51.2 51.2-51.2s51.2 20.48 51.2 51.2-20.48 51.2-51.2 51.2z m204.8 0c-25.6 0-51.2-20.48-51.2-51.2 0-25.6 20.48-51.2 51.2-51.2s51.2 20.48 51.2 51.2-20.48 51.2-51.2 51.2z" fill="#4FB674" p-id="2681"></path><path d="M353.28 640c0-163.84 143.36-296.96 317.44-296.96h15.36C650.24 204.8 517.12 102.4 363.52 102.4 194.56 102.4 51.2 235.52 51.2 404.48c0 97.28 46.08 174.08 128 240.64l-30.72 107.52L256 691.2c25.6 10.24 76.8 15.36 107.52 20.48-5.12-20.48-10.24-46.08-10.24-71.68z m112.64-394.24c35.84 0 66.56 30.72 66.56 66.56s-30.72 66.56-66.56 66.56-66.56-30.72-66.56-66.56 30.72-66.56 66.56-66.56zM256 378.88c-35.84 0-66.56-30.72-66.56-66.56s30.72-66.56 66.56-66.56 66.56 30.72 66.56 66.56-30.72 66.56-66.56 66.56z" fill="#4FB674" p-id="2682"></path></svg>